<svg width="71" height="24" viewBox="0 0 120 41" fill="none" xmlns="http://www.w3.org/2000/svg"><path d="M110.468 0H7.525c-.702 0-1.304.1-2.007.2-.702.101-1.304.302-1.906.603-.602.3-1.104.702-1.605 1.204-.502.501-.903 1.003-1.204 1.605A6.994 6.994 0 00.2 5.518C.1 6.221 0 6.923 0 7.525v24.983c0 .703.1 1.305.2 2.007.101.702.302 1.304.603 1.906.3.703.702 1.204 1.204 1.706.501.502 1.003.903 1.605 1.204a6.052 6.052 0 001.906.602c.703.1 1.305.2 2.007.2H112.475c.702 0 1.304-.1 2.007-.2a6.053 6.053 0 001.906-.602c.602-.3 1.104-.702 1.605-1.204.502-.502.903-1.003 1.204-1.605a6.045 6.045 0 00.602-1.907c.101-.702.201-1.304.201-2.006v-.903V9.532 8.428v-.903c0-.702-.1-1.304-.201-2.007a6.045 6.045 0 00-.602-1.906c-.301-.602-.702-1.104-1.204-1.605-.501-.502-1.003-.903-1.605-1.204A6.054 6.054 0 00114.482.2C113.779.1 113.177 0 112.475 0h-2.007z" fill="#B7B7B7"></path><path d="M8.428 39.231h-.903c-.602 0-1.204 0-1.906-.2a8.47 8.47 0 01-1.706-.502c-.502-.301-1.003-.602-1.405-1.004-.4-.4-.802-.903-1.003-1.404-.3-.502-.401-1.004-.502-1.706-.1-.702-.2-1.405-.2-1.906V8.428v-.903c0-.501 0-1.204.2-1.906.201-.502.301-1.104.602-1.605.301-.502.602-1.004 1.004-1.405.401-.401.903-.702 1.404-1.003.502-.301 1.104-.402 1.706-.502.602-.2 1.304-.2 1.806-.2H112.475c.502 0 1.204 0 1.906.2.602.1 1.104.301 1.706.502.502.3 1.003.602 1.405 1.003.401.401.802.903 1.003 1.405.301.501.401 1.103.502 1.605.1.602.2 1.304.2 1.906V32.51c0 .602-.1 1.204-.2 1.906a8.498 8.498 0 01-.502 1.706c-.301.501-.602 1.003-1.003 1.404-.402.402-.903.803-1.405 1.004-.502.3-1.003.401-1.706.501-.602.1-1.304.1-1.906.201H8.428z" fill="#000001"></path><path d="M24.883 20.367c0-2.81 2.308-4.114 2.408-4.214-1.304-1.907-3.311-2.107-4.013-2.208-1.706-.2-3.311 1.004-4.214 1.004-.903 0-2.208-1.004-3.612-1.004-1.806 0-3.512 1.104-4.515 2.71-1.907 3.31-.502 8.327 1.404 11.036.903 1.305 2.007 2.81 3.412 2.81 1.404-.1 1.906-.903 3.612-.903 1.705 0 2.107.903 3.612.903s2.408-1.305 3.31-2.71c1.104-1.504 1.506-3.01 1.506-3.11 0 .1-2.91-1.003-2.91-4.314zM22.074 12.24c.702-.903 1.304-2.208 1.103-3.512-1.103 0-2.408.702-3.21 1.706-.703.802-1.305 2.107-1.104 3.411 1.204 0 2.508-.702 3.21-1.605zM42.442 27.188h-4.716L36.622 30.6h-2.007l4.515-12.442h2.007L45.652 30.6h-2.006l-1.204-3.412zm-4.215-1.505h3.813l-1.906-5.518h-.1l-1.806 5.518zM55.385 26.084c0 2.81-1.505 4.616-3.813 4.616-1.304 0-2.308-.602-2.81-1.605v4.515h-1.906V21.57h1.806v1.505c.502-1.004 1.606-1.606 2.91-1.606 2.207-.1 3.813 1.806 3.813 4.615zm-2.007 0c0-1.805-.903-3.01-2.408-3.01-1.405 0-2.408 1.204-2.408 3.01 0 1.806 1.003 3.01 2.408 3.01 1.505 0 2.408-1.204 2.408-3.01zM65.318 26.084c0 2.81-1.505 4.616-3.813 4.616-1.304 0-2.308-.602-2.81-1.605v4.515H56.79V21.57h1.806v1.505c.502-1.004 1.606-1.606 2.91-1.606 2.308-.1 3.813 1.806 3.813 4.615zm-1.907 0c0-1.805-.903-3.01-2.408-3.01-1.404 0-2.408 1.204-2.408 3.01 0 1.806 1.004 3.01 2.408 3.01 1.505 0 2.408-1.204 2.408-3.01zM71.94 27.088c.1 1.204 1.304 2.007 3.01 2.007 1.605 0 2.709-.803 2.709-1.907 0-1.003-.703-1.505-2.308-1.906l-1.605-.401c-2.308-.602-3.311-1.606-3.311-3.311 0-2.108 1.906-3.613 4.515-3.613 2.608 0 4.415 1.505 4.515 3.613h-1.907c-.1-1.204-1.103-2.007-2.608-2.007-1.505 0-2.508.803-2.508 1.906 0 .903.702 1.405 2.307 1.806l1.405.301c2.508.602 3.612 1.606 3.612 3.412 0 2.307-1.907 3.812-4.816 3.812-2.81 0-4.615-1.404-4.716-3.712h1.706zM83.579 19.363v2.107h1.705v1.505H83.58v5.017c0 .802.3 1.103 1.103 1.103h.602V30.6c-.2.1-.602.1-1.003.1-1.806 0-2.508-.702-2.508-2.407v-5.218h-1.305V21.57h1.305v-2.107h1.806v-.1zM86.388 26.085c0-2.81 1.706-4.616 4.314-4.616 2.609 0 4.315 1.806 4.315 4.616 0 2.91-1.706 4.615-4.315 4.615-2.709 0-4.314-1.806-4.314-4.615zm6.722 0c0-2.007-.903-3.11-2.408-3.11s-2.408 1.103-2.408 3.11c0 2.006.903 3.11 2.408 3.11s2.408-1.204 2.408-3.11zM96.522 21.47h1.806v1.605c.3-1.004 1.103-1.606 2.207-1.606.301 0 .502 0 .602.1v1.706c-.1-.1-.502-.1-.803-.1-1.204 0-1.906.803-1.906 2.107V30.7h-1.906v-9.23zM109.766 27.89c-.201 1.606-1.906 2.81-3.913 2.81-2.609 0-4.314-1.806-4.314-4.615 0-2.81 1.605-4.716 4.214-4.716 2.508 0 4.113 1.706 4.113 4.515v.602h-6.421v.1c0 1.506 1.003 2.61 2.408 2.61 1.003 0 1.806-.502 2.107-1.305h1.806zm-6.321-2.708h4.515c0-1.405-.903-2.308-2.207-2.308-1.305 0-2.208 1.004-2.308 2.308zM37.926 8.731c1.806 0 2.81 1.104 2.81 3.01 0 1.906-1.004 3.01-2.81 3.01H35.72v-6.02h2.207zm-1.204 5.217h1.104c1.204 0 2.007-.802 2.007-2.107 0-1.304-.703-2.107-2.007-2.107h-1.104v4.214zM41.84 12.442c0-1.505.802-2.308 2.106-2.308 1.305 0 2.107.903 2.107 2.308 0 1.505-.802 2.308-2.107 2.308-1.304.1-2.107-.803-2.107-2.308zm3.31 0c0-1.003-.4-1.505-1.204-1.505-.802 0-1.204.602-1.204 1.505 0 1.003.402 1.605 1.204 1.605.803 0 1.204-.602 1.204-1.605zM51.773 14.75h-.903l-.903-3.31h-.1l-.904 3.31h-.903l-1.204-4.514h.903l.803 3.411h.1l.903-3.411h.903l.903 3.411h.1l.803-3.411h.903l-1.404 4.515zM54.08 10.235h.903v.702h.1c.201-.502.703-.803 1.305-.803 1.003 0 1.605.602 1.605 1.706v2.91h-.903v-2.71c0-.702-.3-1.103-1.003-1.103-.703 0-1.104.401-1.104 1.104v2.608h-.903v-4.414zM59.298 8.43h.903v6.32h-.903V8.43zM61.404 12.442c0-1.505.803-2.308 2.108-2.308 1.304 0 2.107.903 2.107 2.308 0 1.505-.803 2.308-2.107 2.308-1.305.1-2.108-.803-2.108-2.308zm3.412 0c0-1.003-.401-1.505-1.204-1.505-.803 0-1.204.602-1.204 1.505 0 1.003.401 1.605 1.204 1.605.702 0 1.204-.602 1.204-1.605zM66.622 13.445c0-.802.602-1.304 1.706-1.304l1.204-.1v-.402c0-.501-.301-.702-.903-.702-.502 0-.803.2-.903.502h-.903c.1-.803.802-1.305 1.806-1.305 1.103 0 1.806.602 1.806 1.505v3.11h-.903v-.601h-.1c-.302.501-.803.702-1.405.702a1.372 1.372 0 01-1.405-1.405zm2.91-.401v-.401l-1.104.1c-.602 0-.903.301-.903.602 0 .401.401.602.803.602.702.1 1.204-.301 1.204-.903zM71.538 12.443c0-1.405.703-2.308 1.907-2.308.602 0 1.103.3 1.404.803h.1V8.429h.904v6.321h-.903v-.702h-.1a1.601 1.601 0 01-1.405.803c-1.104 0-1.907-.903-1.907-2.408zm1.004 0c0 1.003.501 1.505 1.204 1.505.702 0 1.204-.602 1.204-1.505 0-.903-.502-1.505-1.204-1.505-.803 0-1.204.602-1.204 1.505zM79.465 12.442c0-1.505.802-2.308 2.107-2.308 1.304 0 2.107.903 2.107 2.308 0 1.505-.803 2.308-2.107 2.308-1.305.1-2.107-.803-2.107-2.308zm3.411 0c0-1.003-.401-1.505-1.204-1.505-.802 0-1.204.602-1.204 1.505 0 1.003.401 1.605 1.204 1.605.703 0 1.204-.602 1.204-1.605zM84.983 10.235h.903v.702h.1c.201-.502.703-.803 1.305-.803 1.003 0 1.605.602 1.605 1.706v2.91h-.903v-2.71c0-.702-.3-1.103-1.003-1.103-.703 0-1.104.401-1.104 1.104v2.608h-.903v-4.414zM93.813 9.13v1.104h1.003v.803h-1.003v2.308c0 .502.2.702.602.702h.3v.703h-.501c-1.003 0-1.405-.301-1.405-1.204v-2.509h-.702v-.702h.702V9.13h1.004zM96.02 8.43h.903v2.508h.1c.201-.502.703-.803 1.405-.803 1.003 0 1.605.602 1.605 1.706v2.91h-.903v-2.71c0-.702-.3-1.103-1.003-1.103-.702 0-1.104.501-1.104 1.103v2.609h-.903V8.43h-.1zM105.15 13.546c-.2.802-.903 1.304-2.006 1.304-1.305 0-2.107-.903-2.107-2.308 0-1.404.802-2.408 2.107-2.408 1.304 0 2.006.903 2.006 2.308v.301h-3.21c0 .803.501 1.304 1.204 1.304.501 0 .903-.2 1.103-.501h.903zm-3.21-1.505h2.307c0-.703-.501-1.204-1.103-1.204-.703.1-1.104.501-1.204 1.204z" fill="#fff"></path></svg>