<svg width="121.63" height="32" xmlns="http://www.w3.org/2000/svg" fill="none">

 <g>
  <title>Layer 1</title>
  <path id="svg_1" d="m82.3,6.613c-2.158,0 -3.822,0.769 -5.366,2.374l0,-2l-4.238,0l0,19.68l4.56,0l0,-11.414c0,-2.613 1.556,-4.266 3.917,-4.266c0.429,0 0.805,0.053 1.073,0.106l3.165,-4.16c-1.234,-0.213 -2.307,-0.32 -3.112,-0.32l0.001,0zm39.325,0.374l-5.258,0l-4.855,6.419l-4.855,-6.42l-5.258,0l7.418,9.917l-7.418,9.764l5.365,0l4.721,-6.226l4.721,6.226l5.419,0l-7.468,-9.748l7.468,-9.932zm-95.765,-4.427c-1.556,2.08 -1.932,2.773 -3.434,2.773l-22.426,0l0,26.667l8.799,0c1.985,0 3.916,-0.96 5.15,-2.56c1.61,-2.133 1.824,-2.773 3.38,-2.773l22.48,0l0,-26.667l-8.853,0c-1.985,0 -3.916,0.96 -5.097,2.56l0.001,0zm6.974,17.227l-9.389,0c-2.039,0 -3.916,0.853 -5.15,2.506c-1.61,2.134 -1.932,2.774 -3.434,2.774l-7.94,0l0,-12.8l9.389,0c2.038,0 3.916,-0.96 5.15,-2.56c1.61,-2.08 2.039,-2.72 3.487,-2.72l7.887,0l0,12.8zm33.692,-6.56c1.986,-1.12 3.38,-3.094 3.38,-5.707c0,-3.84 -2.95,-7.52 -7.242,-7.52l-12.876,0l0,26.667l12.876,0c4.667,0 7.886,-3.307 7.886,-7.467c0,-2.453 -1.126,-4.587 -4.024,-5.973zm-12.178,-9.067l7.94,0c1.985,0 3.165,1.867 3.165,3.52c0,2.027 -1.77,3.413 -3.433,3.413l-7.672,0l0,-6.933zm7.672,18.347l-7.672,0l0,-7.254l7.94,0c2.039,0 3.702,1.76 3.702,3.574c0,2.026 -2.092,3.68 -3.97,3.68z" fill="#ffffff"/>
  <path id="svg_2" d="m96.839,21.013c-0.751,1.174 -2.2,1.867 -3.81,1.867c-2.52,0 -4.613,-1.707 -4.613,-4.32l13.627,0c0.215,-0.8 0.268,-1.173 0.268,-1.867c0,-5.973 -3.702,-10.08 -9.281,-10.08c-5.473,0 -9.335,3.894 -9.335,10.24c0,6.187 3.701,10.187 9.442,10.187c4.024,0 7.565,-1.973 8.584,-6.027l-4.882,0zm-3.81,-10.24c2.522,0 4.454,1.6 4.4,4l-8.96,0c0,-2.346 2.04,-4 4.56,-4z" fill="#ffffff"/>
 </g>
</svg>