<svg xmlns="http://www.w3.org/2000/svg" width="16" height="16" viewBox="0 0 21 21" fill="none" color="#BCBDBD"><path d="M4.624.654h1.202l.825 3.091.765-3.09H8.63L7.24 5.25v3.137H6.045V5.251L4.625.654zm5.506 1.982c-.934 0-1.554.618-1.554 1.532v2.796c0 1.006.525 1.53 1.554 1.53.853 0 1.525-.571 1.525-1.53V4.168c0-.893-.666-1.532-1.525-1.532zm.443 4.28c0 .311-.158.54-.444.54-.293 0-.462-.24-.462-.54V4.263c0-.312.143-.543.441-.543.326 0 .465.224.465.543v2.655zm3.95-4.233v4.33c-.13.163-.418.428-.625.428-.226 0-.282-.155-.282-.384V2.683h-1.06v4.768c0 .564.172 1.019.74 1.019.321 0 .767-.167 1.226-.712v.63h1.06V2.682h-1.06zm1.839 11.572c-.374 0-.452.263-.452.637v.55h.893v-.551c0-.367-.077-.636-.441-.636zm-3.927.033a.773.773 0 00-.21.165v3.386a.885.885 0 00.24.192c.165.083.405.089.517-.056.059-.077.088-.202.088-.375v-2.805c0-.184-.036-.322-.108-.418-.122-.16-.35-.178-.527-.089zm4.03-4.338c-2.174-.147-9.24-.147-11.41 0-2.35.16-2.628 1.58-2.645 5.317.017 3.73.292 5.156 2.644 5.316 2.171.148 9.237.148 11.411 0 2.35-.16 2.627-1.58 2.645-5.316-.018-3.73-.293-5.156-2.645-5.317zm-10.29 8.923H5.037v-6.296H3.859v-1.069h3.492v1.07H6.174v6.295zm4.046 0h-1.01v-.6c-.186.222-.38.39-.581.506-.545.312-1.292.305-1.292-.798v-4.54h1.01v4.165c0 .218.052.365.268.365.197 0 .471-.253.594-.406V13.44h1.01v5.432h.001zm3.889-1.125c0 .672-.252 1.194-.924 1.194-.37 0-.678-.135-.96-.486v.417h-1.019v-7.365h1.02v2.372c.228-.278.537-.508.898-.508.74 0 .986.626.986 1.362v3.014h-.001zm3.733-1.463h-1.932v1.025c0 .408.035.76.44.76.427 0 .452-.287.452-.76v-.377h1.04v.408c0 1.046-.45 1.68-1.514 1.68-.964 0-1.458-.702-1.458-1.68V14.9c0-.942.623-1.597 1.534-1.597.97 0 1.437.616 1.437 1.598v1.383h.001z" fill="currentColor"></path></svg>